<svg xmlns="http://www.w3.org/2000/svg" viewBox="0 0 300 300" width="300" height="300">
    <rect width="300" height="300" fill="#ffffff" rx="16"/>
    <!-- Top Left Finder Pattern -->
    <rect x="30" y="30" width="70" height="70" fill="#0a2e4a" rx="8"/>
    <rect x="42" y="42" width="46" height="46" fill="#ffffff" rx="4"/>
    <rect x="52" y="52" width="26" height="26" fill="#0a2e4a" rx="2"/>
    <!-- Top Right Finder Pattern -->
    <rect x="200" y="30" width="70" height="70" fill="#0a2e4a" rx="8"/>
    <rect x="212" y="42" width="46" height="46" fill="#ffffff" rx="4"/>
    <rect x="222" y="52" width="26" height="26" fill="#0a2e4a" rx="2"/>
    <!-- Bottom Left Finder Pattern -->
    <rect x="30" y="200" width="70" height="70" fill="#0a2e4a" rx="8"/>
    <rect x="42" y="212" width="46" height="46" fill="#ffffff" rx="4"/>
    <rect x="52" y="222" width="26" height="26" fill="#0a2e4a" rx="2"/>
    <!-- Data matrix elements -->
    <g fill="#0a2e4a">
      <rect x="115" y="35" width="16" height="16" rx="2"/>
      <rect x="145" y="35" width="16" height="16" rx="2"/>
      <rect x="170" y="45" width="16" height="16" rx="2"/>
      <rect x="115" y="65" width="16" height="16" rx="2"/>
      <rect x="135" y="80" width="20" height="20" rx="3"/>
      <rect x="165" y="75" width="16" height="16" rx="2"/>
      <rect x="35" y="115" width="20" height="20" rx="3"/>
      <rect x="65" y="125" width="16" height="16" rx="2"/>
      <rect x="90" y="110" width="20" height="20" rx="3"/>
      <rect x="120" y="120" width="18" height="18" rx="2"/>
      <rect x="150" y="110" width="22" height="22" rx="3"/>
      <rect x="185" y="125" width="18" height="18" rx="2"/>
      <rect x="215" y="115" width="20" height="20" rx="3"/>
      <rect x="245" y="125" width="18" height="18" rx="2"/>
      <rect x="35" y="150" width="16" height="16" rx="2"/>
      <rect x="65" y="165" width="20" height="20" rx="3"/>
      <rect x="100" y="155" width="22" height="22" rx="3"/>
      <rect x="130" y="150" width="16" height="16" rx="2"/>
      <rect x="160" y="160" width="20" height="20" rx="3"/>
      <rect x="195" y="150" width="16" height="16" rx="2"/>
      <rect x="230" y="160" width="20" height="20" rx="3"/>
      <rect x="115" y="205" width="20" height="20" rx="3"/>
      <rect x="145" y="215" width="16" height="16" rx="2"/>
      <rect x="175" y="205" width="22" height="22" rx="3"/>
      <rect x="215" y="205" width="18" height="18" rx="2"/>
      <rect x="245" y="220" width="16" height="16" rx="2"/>
      <rect x="120" y="245" width="24" height="24" rx="3"/>
      <rect x="160" y="250" width="20" height="20" rx="3"/>
      <rect x="190" y="240" width="20" height="20" rx="3"/>
      <rect x="225" y="250" width="22" height="22" rx="3"/>
    </g>
    <!-- Center Emblem / Logo Badge -->
    <rect x="115" y="115" width="70" height="70" fill="#2d8b46" rx="12"/>
    <text x="150" y="148" fill="#ffffff" font-size="20" font-weight="bold" font-family="Arial, sans-serif" text-anchor="middle">UPI</text>
    <text x="150" y="170" fill="#ffffff" font-size="11" font-weight="bold" font-family="Arial, sans-serif" text-anchor="middle">MARKAZ</text>
  </svg>